<?xml version="1.0" standalone="no"?>
<!DOCTYPE svg PUBLIC "-//W3C//DTD SVG 20010904//EN"
 "http://www.w3.org/TR/2001/REC-SVG-20010904/DTD/svg10.dtd">
<svg version="1.0" xmlns="http://www.w3.org/2000/svg"
 width="400.000000pt" height="400.000000pt" viewBox="0 0 400.000000 400.000000"
 preserveAspectRatio="xMidYMid meet">
<metadata>
Created by potrace 1.11, written by Peter Selinger 2001-2013
</metadata>
<g transform="translate(0.000000,400.000000) scale(0.100000,-0.100000)"
fill="#000000" stroke="none">
<path d="M0 2000 l0 -2000 2000 0 2000 0 0 2000 0 2000 -2000 0 -2000 0 0
-2000z m2600 1886 c202 -37 396 -114 547 -218 141 -97 320 -290 405 -438 94
-164 168 -345 216 -530 48 -184 57 -258 56 -475 0 -219 -14 -323 -74 -522 -83
-282 -255 -603 -448 -838 -152 -186 -297 -326 -427 -413 -126 -83 -301 -176
-316 -166 -7 4 -9 3 -6 -3 8 -12 -222 -95 -323 -116 -236 -50 -530 -50 -732 0
-37 10 -64 21 -61 27 3 5 1 6 -6 2 -6 -4 -28 -2 -48 5 -35 11 -36 12 -17 27
19 14 19 15 -1 7 -44 -16 -58 -18 -51 -7 5 8 -3 12 -24 12 -21 0 -29 4 -24 12
4 6 3 8 -4 4 -13 -8 -65 11 -59 21 3 5 -5 9 -16 10 -18 1 -126 59 -227 122
-24 15 -9 18 55 12 37 -4 59 -10 58 -17 -3 -15 52 -38 66 -29 7 4 8 0 4 -11
-5 -15 -2 -16 26 -11 30 6 33 5 28 -13 -6 -25 1 -26 19 -3 13 17 14 16 20 -5
5 -19 11 -22 31 -17 16 4 22 2 18 -5 -4 -6 4 -10 19 -10 13 0 31 -7 40 -15 8
-8 18 -15 21 -15 4 0 18 -9 32 -20 14 -11 31 -20 37 -20 6 0 4 5 -4 10 -12 8
-11 10 8 10 12 0 22 -4 22 -9 0 -6 12 -6 30 -1 19 5 28 5 25 -1 -4 -5 3 -9 15
-9 13 0 19 -4 14 -12 -5 -8 5 -9 34 -5 23 3 40 2 37 -3 -11 -17 335 -34 352
-16 3 2 27 2 53 -1 29 -3 55 -1 66 6 17 11 16 11 -6 6 -19 -5 -22 -4 -10 4 9
6 33 8 58 5 29 -4 42 -3 42 5 0 7 -5 9 -12 5 -7 -4 -8 -3 -4 5 4 6 12 9 17 6
5 -4 24 -2 42 4 123 37 178 52 183 51 4 -1 10 2 13 7 3 5 31 15 63 22 31 6 59
19 62 27 3 7 17 14 31 14 14 0 25 5 25 10 0 6 14 10 30 10 17 0 30 5 30 11 0
5 -4 7 -10 4 -6 -3 -10 -4 -10 -2 0 3 17 15 38 27 20 12 41 28 45 36 4 8 16
14 25 14 27 0 132 107 132 135 0 16 7 25 25 29 14 4 25 11 25 16 0 5 11 26 25
46 14 20 25 48 25 61 0 18 4 24 15 19 9 -3 15 0 15 9 0 8 5 15 11 15 5 0 7 5
4 10 -4 6 0 22 9 35 9 13 16 33 16 45 0 11 6 19 13 18 6 -2 13 9 15 23 2 15
25 54 52 87 33 41 51 73 53 97 4 33 3 35 -27 34 -26 0 -28 -2 -11 -9 14 -6 15
-9 5 -9 -9 -1 -22 5 -29 12 -9 7 -11 8 -7 0 6 -11 -58 -83 -75 -83 -5 0 -8 -4
-7 -8 3 -9 -41 -65 -93 -121 l-27 -29 -5 35 c-6 33 1 44 81 144 83 104 89 109
117 103 17 -4 35 -9 40 -12 17 -11 76 -12 70 -1 -4 5 3 9 15 9 29 0 21 23 -11
31 l-24 6 28 8 c25 7 26 9 11 20 -15 11 -15 12 5 18 21 5 30 37 10 37 -6 0 -9
-6 -6 -14 4 -9 -5 -16 -26 -21 -18 -4 -26 -9 -20 -12 10 -3 9 -8 -2 -20 -11
-11 -26 -13 -50 -9 -19 4 -35 9 -35 11 0 2 21 34 46 70 26 36 67 105 91 153
25 48 50 90 57 94 6 4 46 8 89 8 79 0 99 12 51 30 -14 6 -43 10 -64 10 -21 0
-41 4 -44 9 -5 7 58 178 70 190 2 2 26 -4 53 -13 27 -9 55 -16 62 -16 20 0
-30 47 -64 61 -18 7 -33 13 -35 14 -1 1 12 67 29 146 16 79 33 159 36 177 7
39 32 57 91 67 56 9 44 25 -19 25 -27 0 -49 2 -49 4 0 3 6 33 14 68 8 35 16
95 18 133 l3 70 38 3 c48 4 47 18 -2 33 -38 11 -39 12 -45 73 -3 33 -11 91
-18 129 -6 37 -8 70 -5 74 4 3 18 -4 32 -17 36 -34 33 -4 -6 49 -26 37 -33 61
-50 168 -10 69 -19 128 -19 130 0 3 7 3 15 -1 25 -9 16 7 -21 37 -19 16 -34
24 -34 18 0 -6 -8 -11 -18 -11 -21 0 -62 -27 -62 -41 0 -6 14 -7 34 -4 18 4
36 3 39 -2 3 -5 9 -55 13 -111 l7 -102 -46 6 c-25 4 -54 3 -64 -1 -14 -5 -4
-13 43 -35 66 -30 71 -37 73 -113 0 -27 5 -87 11 -134 12 -96 9 -104 -47 -121
-21 -7 -49 -21 -63 -33 l-25 -20 35 5 c19 3 52 8 73 12 l37 6 0 -50 c0 -28
-10 -92 -21 -144 l-22 -93 -76 -71 c-42 -40 -73 -75 -69 -79 3 -3 31 10 62 31
31 20 58 35 60 33 1 -2 -13 -69 -33 -149 l-36 -144 -57 -14 c-32 -8 -58 -18
-58 -22 0 -9 36 -20 68 -20 12 0 22 -4 22 -9 0 -13 -72 -155 -83 -162 -5 -4
-6 -12 -3 -18 5 -7 -12 -20 -46 -35 -52 -24 -114 -73 -104 -83 3 -3 26 2 52
11 26 9 50 14 52 11 3 -3 0 -5 -6 -5 -6 0 -13 -14 -17 -31 -4 -17 -13 -33 -21
-36 -8 -3 -14 -11 -14 -19 0 -17 -17 -18 -24 -1 -2 6 -4 1 -3 -13 1 -15 -3
-24 -10 -22 -7 1 -13 -5 -13 -13 0 -8 -4 -15 -10 -15 -5 0 -10 -7 -10 -16 0
-8 -4 -12 -10 -9 -5 3 -10 2 -10 -4 0 -5 -9 -12 -19 -16 -12 -4 -18 -12 -14
-21 3 -7 0 -14 -7 -14 -6 0 -9 -4 -6 -9 4 -5 -11 -5 -35 0 -46 11 -66 4 -49
-16 7 -8 9 -18 6 -24 -3 -5 0 -12 6 -14 10 -4 9 -8 -2 -16 -8 -6 -19 -11 -25
-11 -5 0 -4 4 3 8 7 5 10 16 7 24 -5 13 -11 13 -31 4 -13 -6 -24 -16 -24 -23
0 -6 -9 -19 -21 -27 -12 -8 -18 -19 -15 -24 3 -5 -1 -15 -8 -21 -9 -8 -16 -9
-20 -2 -4 6 -21 8 -39 4 -40 -7 -41 -8 -29 -29 11 -21 -11 -50 -29 -38 -6 3
-14 3 -18 -2 -11 -16 -75 -44 -103 -46 -16 -1 -28 -6 -28 -11 0 -5 -6 -15 -14
-22 -12 -12 -15 -12 -20 0 -5 13 -9 12 -25 -4 -24 -24 -94 -61 -115 -61 -8 0
-16 -3 -18 -7 -6 -15 -70 -43 -111 -49 -23 -4 -55 -13 -71 -21 -16 -8 -39 -13
-51 -10 -18 3 -22 0 -17 -11 3 -9 1 -13 -5 -9 -6 4 -13 1 -16 -5 -3 -10 -7
-11 -19 -1 -11 10 -23 10 -47 2 -17 -6 -31 -16 -31 -21 0 -6 -11 -8 -25 -6
-14 3 -30 -1 -36 -8 -6 -8 -30 -14 -53 -14 -23 0 -51 -6 -61 -14 -11 -8 -25
-12 -32 -9 -8 3 -13 -2 -13 -13 0 -11 -3 -15 -8 -8 -4 6 -15 13 -24 17 -14 5
-18 1 -19 -16 0 -21 -1 -21 -8 -2 -5 11 -6 24 -3 29 3 5 0 6 -6 2 -6 -3 -13
-2 -17 4 -14 22 -26 9 -21 -23 5 -27 4 -28 -4 -10 -11 27 -16 28 -24 7 -4 -10
-2 -13 7 -8 8 5 8 3 -1 -7 -11 -12 -15 -11 -27 5 -13 17 -15 17 -30 2 -13 -12
-34 -15 -93 -14 -42 1 -83 6 -89 11 -7 5 -13 6 -13 1 0 -5 -5 -2 -10 6 -7 11
-10 7 -11 -20 l-1 -35 -7 30 c-3 17 -13 30 -21 30 -8 0 -18 5 -22 10 -5 6 -6
-6 -3 -25 3 -19 3 -29 -1 -22 -7 15 -34 16 -34 0 0 -6 -6 -4 -13 6 -13 18 -14
18 -32 0 -17 -18 -18 -18 -12 -1 9 24 -39 44 -67 27 -16 -10 -18 -9 -13 4 9
22 -18 32 -38 16 -13 -11 -14 -10 -9 5 6 15 4 16 -14 6 -12 -7 -22 -16 -22
-22 0 -6 6 -7 13 -3 6 4 3 -2 -7 -14 -11 -12 -24 -22 -30 -21 -6 0 -5 3 2 6 9
4 7 10 -8 23 -12 11 -18 24 -14 34 4 11 1 16 -10 16 -9 0 -16 -8 -16 -20 0
-19 -1 -19 -21 -2 -51 41 -79 71 -79 81 0 6 -4 11 -9 11 -5 0 -13 9 -16 20 -4
11 -11 18 -16 15 -12 -8 -11 11 2 58 13 48 6 57 -24 29 l-24 -22 -14 27 c-8
16 -17 30 -20 33 -19 17 -129 201 -129 216 0 2 19 9 43 16 l42 13 -50 3 -51 3
-26 72 c-51 142 -53 149 -32 164 10 7 24 13 31 13 7 0 13 5 13 10 0 6 -16 10
-35 10 -29 0 -37 5 -46 28 -20 50 -26 57 -51 60 -34 4 -41 -19 -28 -84 9 -44
9 -58 -5 -84 -20 -38 -13 -50 14 -26 18 17 19 16 26 -16 6 -32 19 -72 35 -113
20 -48 19 -53 -11 -65 -40 -17 -37 -30 5 -23 l34 5 42 -83 c23 -46 56 -104 74
-129 18 -25 47 -71 65 -102 30 -53 31 -61 23 -107 -5 -28 -7 -53 -4 -56 11
-11 20 -4 32 25 7 17 15 30 19 30 3 -1 22 -21 41 -46 26 -34 122 -118 147
-129 2 -1 -1 -28 -6 -61 -5 -32 -9 -49 -10 -36 0 12 -5 22 -11 22 -5 0 -7 -7
-4 -15 4 -8 1 -15 -5 -15 -6 0 -11 -7 -11 -15 0 -8 6 -12 13 -9 8 3 20 -2 27
-11 7 -8 30 -18 51 -21 56 -9 48 -19 -16 -19 -38 0 -56 4 -60 14 -8 20 4 28
15 11 6 -9 10 -10 10 -3 0 6 -4 14 -9 17 -13 8 -42 -4 -35 -15 3 -5 0 -9 -6
-9 -6 0 -9 10 -7 23 2 12 2 16 0 10 -3 -7 -8 -13 -11 -13 -4 0 -47 38 -95 85
-59 57 -85 89 -81 100 4 10 2 14 -7 11 -8 -3 -25 9 -39 27 -14 17 -18 28 -10
23 8 -4 3 2 -12 14 -24 18 -26 24 -16 46 6 13 15 24 20 24 4 0 8 5 8 10 0 6
-7 10 -16 10 -8 0 -13 -3 -10 -8 2 -4 -1 -15 -8 -24 -12 -16 -16 -14 -42 20
-44 55 -86 131 -79 142 4 6 1 9 -6 8 -14 -3 -112 182 -139 262 -80 243 -112
384 -140 625 -13 115 -13 327 0 432 29 227 158 532 330 776 77 109 294 332
400 409 328 240 735 395 1150 438 121 12 410 5 510 -14z m140 -2820 c0 -3 -4
-8 -10 -11 -5 -3 -10 -1 -10 4 0 6 5 11 10 11 6 0 10 -2 10 -4z m-183 -78 c-3
-8 -6 -5 -6 6 -1 11 2 17 5 13 3 -3 4 -12 1 -19z m303 -84 c8 -19 6 -29 -5
-40 -8 -9 -19 -13 -24 -10 -5 3 -11 0 -14 -7 -5 -13 -150 -89 -194 -102 -13
-3 -23 -10 -23 -14 0 -3 -9 -7 -20 -7 -11 0 -20 5 -19 11 1 14 17 52 18 42 1
-11 220 104 245 129 27 28 25 28 36 -2z m-349 -190 c-4 -16 -12 -28 -17 -26
-8 2 -121 -29 -206 -57 -19 -6 -30 -4 -42 7 -14 15 -3 20 127 62 78 26 143 46
144 45 1 0 -1 -14 -6 -31z m-1392 -23 c0 -10 -2 -11 -6 -3 -7 18 -23 15 -23
-5 0 -9 -3 -14 -6 -10 -3 3 -3 15 1 26 7 23 35 17 34 -8z m51 8 c0 -6 -4 -7
-10 -4 -5 3 -10 11 -10 16 0 6 5 7 10 4 6 -3 10 -11 10 -16z m1023 -73 c20
-15 22 -28 5 -25 -7 1 -20 0 -28 -3 -76 -27 -192 -51 -284 -59 -61 -5 -118
-11 -126 -12 -9 -1 -16 7 -18 21 -3 19 1 22 30 22 57 0 250 29 323 49 39 10
72 19 75 19 3 1 13 -5 23 -12z m-1064 -77 c41 -10 87 -19 103 -19 24 0 28 -4
28 -29 l0 -29 -72 4 c-40 3 -84 9 -98 14 -14 5 -40 11 -58 14 -19 2 -35 6 -37
8 -2 2 3 18 11 37 11 25 18 32 31 26 10 -4 51 -15 92 -26z m545 -5 c3 -9 6
-23 6 -31 0 -12 -3 -13 -13 -4 -8 6 -16 9 -19 6 -3 -3 -27 -8 -54 -10 -99 -11
-130 -14 -194 -23 -74 -11 -80 -9 -80 22 0 24 11 25 331 55 9 0 20 -6 23 -15z
m83 -340 c-3 -3 -12 -4 -19 -1 -8 3 -5 6 6 6 11 1 17 -2 13 -5z"/>
<path d="M2202 3549 c-116 -22 -213 -98 -262 -202 -42 -87 -53 -154 -48 -288
4 -111 6 -121 41 -193 55 -110 116 -156 264 -198 65 -19 103 -22 223 -23 127
0 152 3 201 23 83 33 135 75 180 144 52 82 73 154 72 253 -1 260 -143 422
-418 480 -76 16 -185 18 -253 4z"/>
<path d="M1265 2575 c-129 -43 -187 -55 -305 -60 -181 -8 -253 -21 -343 -60
-91 -40 -152 -83 -190 -136 -26 -36 -67 -146 -67 -181 0 -28 89 -171 125 -200
18 -15 46 -52 63 -81 65 -116 160 -166 329 -175 84 -4 113 -1 170 16 150 46
260 155 313 311 42 127 37 214 -21 359 -24 61 -28 81 -20 101 20 51 16 123 -7
120 -4 0 -25 -7 -47 -14z"/>
<path d="M1687 2383 c-24 -23 37 -134 121 -222 59 -62 122 -55 122 13 0 24
-14 44 -73 102 -40 39 -92 81 -115 93 -46 24 -46 24 -55 14z"/>
<path d="M1554 2339 c-37 -41 -28 -252 15 -309 24 -34 53 -36 86 -7 25 21 28
30 27 83 -1 81 -40 200 -78 238 -20 21 -27 20 -50 -5z"/>
<path d="M2730 1160 c-8 -5 -10 -10 -5 -10 6 0 17 5 25 10 8 5 11 10 5 10 -5
0 -17 -5 -25 -10z"/>
<path d="M456 1077 c3 -10 9 -15 12 -12 3 3 0 11 -7 18 -10 9 -11 8 -5 -6z"/>
<path d="M470 1039 c0 -5 5 -7 10 -4 6 3 10 8 10 11 0 2 -4 4 -10 4 -5 0 -10
-5 -10 -11z"/>
<path d="M506 943 c-6 -14 -5 -15 5 -6 7 7 10 15 7 18 -3 3 -9 -2 -12 -12z"/>
<path d="M520 914 c0 -6 7 -19 15 -30 8 -10 14 -14 14 -9 0 6 -6 19 -14 29 -8
11 -15 15 -15 10z"/>
<path d="M580 871 c0 -6 5 -13 10 -16 6 -3 10 1 10 9 0 9 -4 16 -10 16 -5 0
-10 -4 -10 -9z"/>
<path d="M643 775 c-18 -20 -16 -24 7 -18 11 3 20 12 20 19 0 18 -11 17 -27
-1z"/>
<path d="M1085 780 c-3 -5 -1 -10 4 -10 6 0 11 5 11 10 0 6 -2 10 -4 10 -3 0
-8 -4 -11 -10z"/>
<path d="M669 733 c9 -17 9 -23 0 -23 -8 0 -8 -4 1 -15 7 -9 18 -14 24 -12 6
2 23 -10 38 -27 22 -24 28 -27 28 -13 0 10 -7 20 -15 23 -8 4 -15 13 -15 21 0
8 -5 11 -11 8 -6 -4 -9 -1 -7 6 1 8 0 14 -4 14 -3 0 -16 9 -28 20 l-23 20 12
-22z m35 -28 c-7 -16 -24 -21 -24 -6 0 8 7 13 27 20 1 1 0 -6 -3 -14z"/>
<path d="M710 646 c0 -2 8 -10 18 -17 15 -13 16 -12 3 4 -13 16 -21 21 -21 13z"/>
<path d="M766 621 c-11 -12 -14 -21 -7 -21 6 0 14 7 18 16 9 23 24 -5 17 -31
-4 -11 -3 -17 1 -13 5 4 14 0 21 -10 7 -9 16 -13 21 -9 4 5 0 14 -10 21 -9 7
-17 17 -17 23 0 5 -6 17 -13 27 -12 16 -14 16 -31 -3z"/>
<path d="M830 601 c0 -5 5 -13 10 -16 6 -3 10 -2 10 4 0 5 -4 13 -10 16 -5 3
-10 2 -10 -4z"/>
<path d="M876 554 c19 -15 19 -15 -1 -10 -15 5 -21 1 -21 -13 0 -13 8 -18 28
-19 15 0 28 4 28 9 0 21 -21 49 -37 49 -14 0 -14 -2 3 -16z"/>
<path d="M1075 360 c3 -5 11 -10 16 -10 6 0 7 5 4 10 -3 6 -11 10 -16 10 -6 0
-7 -4 -4 -10z"/>
<path d="M1596 172 c-2 -4 13 -6 35 -4 21 2 39 6 39 8 0 7 -69 4 -74 -4z"/>
<path d="M2023 173 c15 -2 39 -2 55 0 15 2 2 4 -28 4 -30 0 -43 -2 -27 -4z"/>
<path d="M2008 153 c6 -2 18 -2 25 0 6 3 1 5 -13 5 -14 0 -19 -2 -12 -5z"/>
</g>
</svg>
